<?xml version="1.0" encoding="UTF-8"?>
<svg id="Capa_2" data-name="Capa 2" xmlns="http://www.w3.org/2000/svg" xmlns:xlink="http://www.w3.org/1999/xlink" viewBox="0 0 694.38 377.97">
  <defs>
    <style>
      .cls-1 {
        fill: url(#Degradado_sin_nombre_27);
      }

      .cls-1, .cls-2, .cls-3 {
        stroke-width: 0px;
      }

      .cls-4 {
        fill: none;
        stroke: #fff;
        stroke-miterlimit: 10;
        stroke-width: 16px;
      }

      .cls-2 {
        fill: #fff;
      }

      .cls-3 {
        fill: #0071bc;
      }
    </style>
    <linearGradient id="Degradado_sin_nombre_27" data-name="Degradado sin nombre 27" x1="416.26" y1="19.54" x2="416.26" y2="347.98" gradientUnits="userSpaceOnUse">
      <stop offset="0" stop-color="#0071bc"/>
      <stop offset="1" stop-color="#161559"/>
    </linearGradient>
  </defs>
  <g id="Capa_1-2" data-name="Capa 1">
    <path class="cls-4" d="M678.39,14.55c-.3-.19-.6-.39-.89-.61-.2-.15-.37-.26-.52-.36l-14.85,7.9,14.78-7.94c-.77-.5-1.06-.55-2.1-1.3-.3-.22-1.82-1.33-2.07-1.59h0l-3.53-2.14-43.43,9.77c-.43.06,2.84-.14,2.41-.08-.02.04-3.75.34-3.77.38l-122.52,27.56c-.86.19-1.71.38-2.57.58L26.25,153.16l15.3,6.39c10.83,4.81,22.02,9.47,33.22,14.14,1.11.46,1.87.93,4.21,1.59,15.08,5.76,30.16,11.53,45.23,17.32,10.46,4.03,20.88,8.17,31.35,12.19,2.8,1.07,4.55,2.9,5.82,5.63.21.45.42.9.63,1.35l-.44.17c1.17,2.51,5.36,11.49,6.53,14,15.16,32.54,27.91,58.75,42.62,90.25,1.27,2.72,2.54,5.44,3.8,8.17.07.16.15.32.23.48,0,0,0,.01,0,.02,4.32,9.32,8.56,18.76,13.06,28,1.44,2.94,3.66,2.83,6.2.34,15.8-15.53,32.33-30.32,47.5-46.48l-.3-.62c2.16-1.93,3.17-.7,4.66,1.54,13.05,19.69,26.19,39.32,39.34,58.94,2.96,4.42,3.9,4.43,7.48.62,31.98-34.05,64.69-67.39,97.42-100.73,31.23-31.81,62.16-63.91,93.33-95.79,8.31-8.5,16.67-16.93,25.05-25.36h0c8.18-8.23,16.37-16.46,24.52-24.72.78-.79,1.65-1.44,2.55-2.06l105.17-102.52c-.19-.1-2.41-1.24-2.35-1.46Z"/>
    <g>
      <path class="cls-2" d="M93.72,158.98c2.58.41,132.82,85.77,132.82,85.77l25.17,51.44,61.29-2.19L623.83,54.32l-24.44-17.63-117,20.19L93.72,158.98Z"/>
      <g>
        <path class="cls-3" d="M665.05,20.73c-.29-.19-.57-.37-.86-.58-1.22-.89-1.36-.75-2.58-1.64-.29-.21-1.74-1.28-1.99-1.53-10.95,2.61-29.89,5.12-46.37,7.51-.46,1.05-1.35,1.94-2.77,2.36-7.85,2.33-16.02,3.62-23.95,5.7-7.8,2.05-15.68,3.89-23.39,6.26-7.37,2.27-14.55,5.12-22.17,6.42-7.41,1.27-15.22,1.65-22.15,4.79-2.78,1.26-5.36-.34-6.39-2.47-24.01,4.55-47.55,11.13-71.45,16.19-29.73,6.3-59.25,13.56-88.89,20.25-27.27,6.15-54.57,12.12-81.76,18.62-23.44,5.6-47.02,10.63-70.5,16.12-19.98,4.67-39.88,9.69-59.84,14.42-15.59,3.7-29.44,7.2-45.07,10.75-.45.1-.89.22-1.33.33-.32.43-2.49.92-3.07,1.16-16.35,6.75-25.32,9.44-37.52,14.68,10.4,4.62,21.17,9.1,31.93,13.59,1.07.45,1.79.9,4.05,1.53,14.49,5.54,28.98,11.08,43.46,16.65,10.06,3.87,20.07,7.85,30.13,11.71,2.69,1.03,4.37,2.79,5.59,5.41,16.99,36.52,34.12,72.97,51.07,109.5,4.16,8.96,8.47,17.83,12.8,26.71,1.38,2.83,2.6,3.4,5.04,1,15.18-14.93,31.07-29.14,45.65-44.67,2.51-2.68,3.53-1.47,5.09.89,12.54,18.92,25.17,37.79,37.81,56.65,2.85,4.25,3.75,4.26,7.19.59,30.74-32.73,62.18-64.77,93.62-96.81,30.01-30.57,59.74-61.43,89.69-92.06,7.98-8.17,16.03-16.27,24.07-24.37h0c7.86-7.91,15.73-15.82,23.57-23.76.75-.76,1.59-1.38,2.45-1.98l98.97-99.46c-.19-.09-.21-.26-.15-.47ZM492.52,58.54c-94.48,24.96-188.48,51.85-284.21,71.97,93.97-26.97,188.85-50.43,284.21-71.97ZM196.45,176.9c-2.8.99-5.31.87-8.18.11-19.72-5.22-39.77-8.93-59.85-12.45-7.55-1.32-15.02-3.07-22.48-5.05,7.7.87,15.38,1.95,23.09,2.57,17.04,1.37,33.74,4.91,50.59,7.52,1.01.16,2.13.18,3,.64,7.21,3.81,14.22,2.15,21.49-.13,18.84-5.91,37.79-11.47,56.69-17.18,1.71-.52,3.41-1.08,5.12-1.62.11.18.21.37.32.55-5.36,2.06-10.68,4.24-16.09,6.15-17.88,6.33-35.82,12.54-53.7,18.88ZM586.97,65.6c-27.94,15.73-56.01,31.21-83.79,47.21-26.58,15.31-54.2,28.57-81.34,42.77-32.5,17-65.1,33.81-97.14,51.68-11.53,6.43-22.79,13.37-33.69,20.84-7.87,5.39-9.54,12.19-5.01,20.51,6.56,12.05,13.24,24.04,18.97,36.52.56,1.22,1.45,2.37,1.18,4.48-6.7-10.45-13.56-20.16-19.48-30.49-3.32-5.78-6.79-11.47-10.24-17.18-1.53-2.53-1.29-4.62.71-6.93,6.1-7.06,14.33-11.13,21.94-16.06,15.49-10.04,31.07-19.95,46.6-29.93.6-.39,1.44-.71,1.13-2.07-33,14.26-64.46,31.61-97.36,45.9,115.7-59.28,233.05-115.21,348.54-174.88.17.32.34.65.51.97-3.84,2.22-7.65,4.49-11.52,6.66Z"/>
        <polyline class="cls-3" points="162.57 203.56 649.29 16.97 656.23 14.92 659.63 16.97 637.4 22.99"/>
        <polygon class="cls-3" points="38.29 153.93 656.23 14.92 643.67 21.2 67.89 157.52 53 160.07 38.29 153.93"/>
      </g>
      <path class="cls-1" d="M168.34,210.43c1.12,2.41,5.15,11.04,6.28,13.45,15.89,34.1,29.01,60.94,44.84,95.07,4.16,8.96,8.22,18.03,12.56,26.91,1.38,2.83,3.52,2.72,5.96.32,15.18-14.93,31.07-29.14,45.65-44.67l-33.3-68.66L664.18,19.54"/>
    </g>
  </g>
</svg>