<?xml version="1.0" encoding="UTF-8"?>
<svg id="Capa_2" data-name="Capa 2" xmlns="http://www.w3.org/2000/svg" xmlns:xlink="http://www.w3.org/1999/xlink" viewBox="0 0 197.99 148.35">
  <defs>
    <style>
      .cls-1 {
        fill: url(#Degradado_sin_nombre_1413);
      }

      .cls-1, .cls-2 {
        stroke-width: 0px;
      }

      .cls-2, .cls-3 {
        fill: #fff;
      }

      .cls-3 {
        stroke: #fff;
        stroke-miterlimit: 10;
        stroke-width: 5px;
      }
    </style>
    <radialGradient id="Degradado_sin_nombre_1413" data-name="Degradado sin nombre 1413" cx="69.56" cy="140.01" fx="69.56" fy="140.01" r="56.01" gradientTransform="translate(23.84 -47.7) rotate(-2.2)" gradientUnits="userSpaceOnUse">
      <stop offset="0" stop-color="#fbb03b"/>
      <stop offset=".27" stop-color="#fca22d"/>
      <stop offset=".62" stop-color="#fe9621"/>
      <stop offset="1" stop-color="#ff931e"/>
    </radialGradient>
  </defs>
  <g id="Capa_1-2" data-name="Capa 1">
    <g>
      <circle class="cls-3" cx="98.72" cy="89.38" r="56.47"/>
      <g>
        <path class="cls-2" d="M183.29,76.88c-7.37,4.48-15.09,8.3-22.81,12.14-.57.28-1.25.69-1.82.26-.71-.54-.33-1.35-.07-2,.9-2.28,2.78-3.75,4.63-5.14,4.45-3.32,9.01-6.5,13.5-9.77,7.25-5.29,14.06-11.05,19.29-18.45.34-.49.62-1.39,1.36-1.16.87.27.54,1.23.57,1.91.3,9.35-5,15.45-12.01,20.52-.85.61-1.76,1.13-2.65,1.69Z"/>
        <g>
          <path class="cls-2" d="M184.78,10.77c3.38,5.93,3.15,14.17.75,22.61-2.85,10.01-8.76,18.25-15.07,26.27-4.34,5.51-13.94,19.82-16.7,26.41-2.25,5.39-3.12,1.81-1.58,7.65-4.33-2.52-1.46-1.54-1.97-1.21-.58.37-.45-.91-.92-1.18-6.4-3.7-2.86-7.59,0-15.57,2.86-7.97,7.34-15.06,12.23-21.9,4.91-6.86,9.32-13.97,11.29-22.3,2-8.47,1.69-16.65-3.14-24.24-1.46-2.29-3.5-3.99-5.73-5.48-.39-.26-.89-.55-.65-1.14.17-.43.66-.37,1.05-.43,7.42-1.25,15.14,2.2,20.43,10.52Z"/>
          <path class="cls-2" d="M192.88,27.77c5.53,9.84,4.72,19.34-2.55,28.34-5.15,6.38-11.39,11.62-17.77,16.7-3.66,2.91-7.43,5.67-11.16,8.49-.47.36-.9,1.21-1.59.64-.59-.49-.08-1.21.14-1.78,1.85-4.69,4.52-8.9,7.56-12.9,5.02-6.61,10.8-12.63,15.18-19.75,3.71-6.03,6.74-12.3,8.06-19.3.13-.66-.12-1.54.73-1.91.37-.16.7.22,1.4,1.47Z"/>
          <path class="cls-2" d="M184.24,85.55c-4.07,2.58-8.67,3.85-13.21,5.25-3.39,1.05-6.79,2.05-10.2,3.04-.5.15-1.15.55-1.53-.1-.34-.57.16-1.06.5-1.5,1.23-1.58,2.96-2.45,4.72-3.26,7.68-3.52,15.73-6.26,22.93-10.81.95-.6,1.89-1.24,2.85-1.83.39-.25.88-.65,1.26-.15.17.23.01.77-.1,1.13-.79,2.52-4.04,6.21-7.22,8.23Z"/>
        </g>
      </g>
      <g>
        <path class="cls-2" d="M14.7,76.88c7.37,4.48,15.09,8.3,22.81,12.14.57.28,1.25.69,1.82.26.71-.54.33-1.35.07-2-.9-2.28-2.78-3.75-4.63-5.14-4.45-3.32-9.01-6.5-13.5-9.77-7.25-5.29-14.06-11.05-19.29-18.45-.34-.49-.62-1.39-1.36-1.16-.87.27-.54,1.23-.57,1.91-.3,9.35,5,15.45,12.01,20.52.85.61,1.76,1.13,2.65,1.69Z"/>
        <g>
          <path class="cls-2" d="M13.21,10.77c-3.38,5.93-3.15,14.17-.75,22.61,2.85,10.01,8.76,18.25,15.07,26.27,4.34,5.51,9.08,10.74,11.84,17.32,2.25,5.39,4.91,8.49,3.37,14.33-.12.45,7.83-.52,4.18,2.8-.51.47,1.87.63-.92.53-.26-6.86.92-10.94,2.7-18.88-2.86-7.97-7.34-15.06-12.23-21.9-4.91-6.86-9.32-13.97-11.29-22.3-2-8.47-1.69-16.65,3.14-24.24,1.46-2.29,3.5-3.99,5.73-5.48.39-.26.89-.55.65-1.14-.17-.43-.66-.37-1.05-.43-7.42-1.25-15.14,2.2-20.43,10.52Z"/>
          <path class="cls-2" d="M5.11,27.77C-.42,37.61.4,47.11,7.67,56.12c5.15,6.38,11.39,11.62,17.77,16.7,3.66,2.91,7.43,5.67,11.16,8.49.47.36.9,1.21,1.59.64.59-.49.08-1.21-.14-1.78-1.85-4.69-4.52-8.9-7.56-12.9-5.02-6.61-10.8-12.63-15.18-19.75-3.71-6.03-6.74-12.3-8.06-19.3-.13-.66.12-1.54-.73-1.91-.37-.16-.7.22-1.4,1.47Z"/>
          <path class="cls-2" d="M13.75,85.55c4.07,2.58,8.67,3.85,13.21,5.25,3.39,1.05,6.79,2.05,10.2,3.04.5.15,1.15.55,1.53-.1.34-.57-.16-1.06-.5-1.5-1.23-1.58-2.96-2.45-4.72-3.26-7.68-3.52-15.73-6.26-22.93-10.81-.95-.6-1.89-1.24-2.85-1.83-.39-.25-.88-.65-1.26-.15-.17.23-.01.77.1,1.13.79,2.52,4.04,6.21,7.22,8.23Z"/>
        </g>
      </g>
      <path class="cls-1" d="M42.75,91.63c-1.19-30.65,23.04-56.86,53.67-58.06,30.7-1.19,57.08,23.03,58.26,53.51,1.2,30.86-23.21,57.28-54.01,58.44-30.45,1.15-56.73-23.3-57.92-53.9ZM70.33,47.83c5.52,2.46,11.03,1.59,16.67-.57,3.37-1.3,6.8.2,9.86,1.82,1.86.98,2.39,2.83,1.26,4.62-.94,1.48-2.89,2.41-4.14.94-3.91-4.59-7.64-.52-11.31.11-1.48.25-4.64,1.43-3.45,3.73,1.24,2.39,3.59.59,5.03-.67,3.11-2.72,6.43-1.72,9.74-.86,1.89.5,2.26,2.11,2.27,3.86.01,1.84-.59,3.45-2.6,3.42-4.95-.08-7.01,3.65-9.84,6.68-3.96,4.23-6.09,11.51-14.53,9.06-1.58-.46-3.91,1.35-4.1,3.6-.18,2.16,2.07,2.2,3.48,2.75,1.89.74,3.67,1.46,4.54,3.52.77,1.85,2.23,1.92,4.05,1.62,6.88-1.14,12.9.91,17.76,5.77,2.36,2.36,4.46,4.56,8.1,4.72,2.16.1,4.31,1.91,3.96,3.76-.68,3.59-1.42,8.42-3.92,10.14-4.68,3.22-5.65,8.25-7.86,12.4-3.81,7.18.05,12.12,8,11.59,11.86-.79,21.86-5.76,30.55-13.67,1.38-1.26,2.96-2.89,2.1-4.64-3.49-7.09-1.15-15.4-5.4-22.52-2.33-3.9-4.32-4.68-8.13-3.35-1.8.63-3.7,1.85-5.66.41-6.23-4.57-8.47-12.61-2.13-17.26,1.95-1.43,4.58-3.75,3.3-5.92-2.21-3.74-.23-4.77,2.37-6.13,1.16-.61,2.19-1.47,1.78-2.99-.24-.9-.93-1.61-1.95-1.55-1.34.07-3.14,1.14-3.5-1.06-.26-1.63,1.75-2.1,2.59-3.23,1.67-2.23,3.14-1.19,5.02.03,4.53,2.96,10.15,1.77,11.88-2.22-.61-.39-1-.03-1.26.44-1.87,3.4-4.62,2.61-6.89.97-3.04-2.19-.09-3.59,1.21-5.05,1.25-1.4,1.05-2.36-.42-3.54-16.62-13.3-45.19-12.19-58.43-.72ZM50.64,77.93c-2.3.75-2.09,3.02-2.24,4.77-1.06,12.94,1.03,25.13,8.68,36,6.23,8.84,14.52,14.9,24.59,18.64,1.17.43,2.52,1.27,3.61.46,1.76-1.33-.35-2.48-.54-3.75-.59-4.1-1.27-8.18-1.84-12.28-.53-3.82-1.74-6.92-4.91-9.74-3.61-3.21-7.5-7.28-4.07-13.08.68-1.15.68-2.11-.62-2.62-3.19-1.26-5.51-4.06-8.99-4.84-3.49-.78-6.05-2.42-7.17-6.38-.85-3.02-2.94-5.78-6.51-7.17Z"/>
    </g>
  </g>
</svg>