<?xml version="1.0" encoding="UTF-8"?>
<svg id="Capa_2" data-name="Capa 2" xmlns="http://www.w3.org/2000/svg" xmlns:xlink="http://www.w3.org/1999/xlink" viewBox="0 0 421.09 310.3">
  <defs>
    <style>
      .cls-1 {
        fill: url(#Degradado_sin_nombre_1413-7);
      }

      .cls-1, .cls-2, .cls-3, .cls-4, .cls-5, .cls-6, .cls-7, .cls-8, .cls-9, .cls-10 {
        stroke-width: 0px;
      }

      .cls-2 {
        fill: url(#Degradado_sin_nombre_1413);
      }

      .cls-3 {
        fill: url(#Degradado_sin_nombre_1413-3);
      }

      .cls-4 {
        fill: url(#Degradado_sin_nombre_1413-5);
      }

      .cls-5 {
        fill: url(#Degradado_sin_nombre_1413-4);
      }

      .cls-6 {
        fill: url(#Degradado_sin_nombre_1413-9);
      }

      .cls-7 {
        fill: url(#Degradado_sin_nombre_1413-6);
      }

      .cls-8 {
        fill: url(#Degradado_sin_nombre_1413-2);
      }

      .cls-9 {
        fill: #fff;
      }

      .cls-10 {
        fill: url(#Degradado_sin_nombre_1413-8);
      }
    </style>
    <radialGradient id="Degradado_sin_nombre_1413" data-name="Degradado sin nombre 1413" cx="378.84" cy="151.2" fx="378.84" fy="151.2" r="40.7" gradientUnits="userSpaceOnUse">
      <stop offset="0" stop-color="#fbb03b"/>
      <stop offset=".27" stop-color="#fca22d"/>
      <stop offset=".62" stop-color="#fe9621"/>
      <stop offset="1" stop-color="#ff931e"/>
    </radialGradient>
    <radialGradient id="Degradado_sin_nombre_1413-2" data-name="Degradado sin nombre 1413" cx="354.14" cy="99.64" fx="354.14" fy="99.64" r="77.1" xlink:href="#Degradado_sin_nombre_1413"/>
    <radialGradient id="Degradado_sin_nombre_1413-3" data-name="Degradado sin nombre 1413" cx="378.58" cy="115.28" fx="378.58" fy="115.28" r="50.37" xlink:href="#Degradado_sin_nombre_1413"/>
    <radialGradient id="Degradado_sin_nombre_1413-4" data-name="Degradado sin nombre 1413" cx="373.08" cy="180.83" fx="373.08" fy="180.83" r="27.95" xlink:href="#Degradado_sin_nombre_1413"/>
    <radialGradient id="Degradado_sin_nombre_1413-5" data-name="Degradado sin nombre 1413" cx="42.25" cy="151.2" fx="42.25" fy="151.2" r="40.7" xlink:href="#Degradado_sin_nombre_1413"/>
    <radialGradient id="Degradado_sin_nombre_1413-6" data-name="Degradado sin nombre 1413" cx="63.13" cy="100.66" fx="63.13" fy="100.66" r="76.71" xlink:href="#Degradado_sin_nombre_1413"/>
    <radialGradient id="Degradado_sin_nombre_1413-7" data-name="Degradado sin nombre 1413" cx="42.51" cy="115.28" fx="42.51" fy="115.28" r="50.37" xlink:href="#Degradado_sin_nombre_1413"/>
    <radialGradient id="Degradado_sin_nombre_1413-8" data-name="Degradado sin nombre 1413" cx="48.01" cy="180.83" fx="48.01" fy="180.83" r="27.95" xlink:href="#Degradado_sin_nombre_1413"/>
    <radialGradient id="Degradado_sin_nombre_1413-9" data-name="Degradado sin nombre 1413" cx="204.43" cy="235.71" fx="204.43" fy="235.71" r="119.13" gradientTransform="translate(-3.36 -37.25) rotate(-2.2)" xlink:href="#Degradado_sin_nombre_1413"/>
  </defs>
  <g id="Capa_1-2" data-name="Capa 1">
    <g>
      <circle class="cls-9" cx="209.97" cy="190.21" r="120.09"/>
      <g>
        <path class="cls-2" d="M389.82,163.51c-15.67,9.54-32.1,17.66-48.5,25.82-1.21.6-2.66,1.47-3.86.56-1.51-1.15-.7-2.87-.15-4.26,1.91-4.85,5.9-7.98,9.86-10.93,9.47-7.07,19.16-13.82,28.71-20.78,15.43-11.25,29.9-23.49,41.04-39.24.73-1.04,1.32-2.95,2.89-2.46,1.86.58,1.16,2.62,1.2,4.05.63,19.89-10.63,32.85-25.54,43.65-1.8,1.3-3.75,2.41-5.63,3.6Z"/>
        <g>
          <path class="cls-8" d="M392.99,22.9c7.19,12.6,6.71,30.14,1.59,48.09-6.06,21.28-18.63,38.82-32.05,55.87-9.22,11.71-29.66,42.16-35.52,56.16-4.79,11.45-6.63,3.85-3.35,16.26-9.2-5.36-3.1-3.27-4.19-2.57-1.24.79-.95-1.94-1.96-2.52-13.61-7.86-6.09-16.14,0-33.11,6.09-16.95,15.6-32.04,26.01-46.58,10.45-14.6,19.83-29.71,24.02-47.44,4.26-18.01,3.6-35.42-6.68-51.55-3.11-4.87-7.43-8.48-12.18-11.65-.83-.55-1.89-1.17-1.39-2.42.37-.91,1.4-.78,2.23-.93,15.78-2.66,32.2,4.67,43.45,22.37Z"/>
          <path class="cls-3" d="M410.22,59.07c11.76,20.92,10.03,41.13-5.43,60.28-10.95,13.56-24.23,24.72-37.79,35.52-7.78,6.19-15.81,12.06-23.74,18.06-1.01.76-1.92,2.57-3.39,1.36-1.26-1.04-.17-2.57.3-3.79,3.93-9.98,9.6-18.93,16.07-27.44,10.68-14.06,22.97-26.86,32.3-42,7.89-12.82,14.33-26.15,17.15-41.05.27-1.41-.26-3.27,1.55-4.07.79-.34,1.49.47,2.98,3.13Z"/>
          <path class="cls-5" d="M391.85,181.95c-8.66,5.48-18.44,8.19-28.09,11.18-7.2,2.23-14.44,4.35-21.69,6.46-1.06.31-2.45,1.17-3.26-.22-.72-1.22.34-2.26,1.05-3.18,2.61-3.36,6.29-5.22,10.05-6.94,16.34-7.49,33.46-13.32,48.77-22.99,2.03-1.28,4.02-2.63,6.05-3.9.84-.52,1.87-1.39,2.68-.32.36.48.02,1.63-.22,2.41-1.67,5.37-8.6,13.21-15.35,17.5Z"/>
        </g>
      </g>
      <g>
        <path class="cls-4" d="M31.26,163.51c15.67,9.54,32.1,17.66,48.5,25.82,1.21.6,2.66,1.47,3.86.56,1.51-1.15.7-2.87.15-4.26-1.91-4.85-5.9-7.98-9.86-10.93-9.47-7.07-19.16-13.82-28.71-20.78-15.43-11.25-29.9-23.49-41.04-39.24-.73-1.04-1.32-2.95-2.89-2.46-1.86.58-1.16,2.62-1.2,4.05-.63,19.89,10.63,32.85,25.54,43.65,1.8,1.3,3.75,2.41,5.63,3.6Z"/>
        <g>
          <path class="cls-7" d="M28.1,22.9c-7.19,12.6-6.71,30.14-1.59,48.09,6.06,21.28,18.63,38.82,32.05,55.87,9.22,11.71,19.31,22.83,25.18,36.84,4.79,11.45,10.45,18.06,7.17,30.47-.25.96,16.64-1.11,8.88,5.96-1.09.99,3.98,1.34-1.96,1.12-.56-14.6,1.96-23.26,5.74-40.16-6.09-16.95-15.6-32.04-26.01-46.58-10.45-14.6-19.83-29.71-24.02-47.44-4.26-18.01-3.6-35.42,6.68-51.55,3.11-4.87,7.43-8.48,12.18-11.65.83-.55,1.89-1.17,1.39-2.42-.37-.91-1.4-.78-2.23-.93-15.78-2.66-32.2,4.67-43.45,22.37Z"/>
          <path class="cls-1" d="M10.87,59.07C-.89,79.99.84,100.21,16.3,119.35c10.95,13.56,24.23,24.72,37.79,35.52,7.78,6.19,15.81,12.06,23.74,18.06,1.01.76,1.92,2.57,3.39,1.36,1.26-1.04.17-2.57-.3-3.79-3.93-9.98-9.6-18.93-16.07-27.44-10.68-14.06-22.97-26.86-32.3-42-7.89-12.82-14.33-26.15-17.15-41.05-.27-1.41.26-3.27-1.55-4.07-.79-.34-1.49.47-2.98,3.13Z"/>
          <path class="cls-10" d="M29.24,181.95c8.66,5.48,18.44,8.19,28.09,11.18,7.2,2.23,14.44,4.35,21.69,6.46,1.06.31,2.45,1.17,3.26-.22.72-1.22-.34-2.26-1.05-3.18-2.61-3.36-6.29-5.22-10.05-6.94-16.34-7.49-33.46-13.32-48.77-22.99-2.03-1.28-4.02-2.63-6.05-3.9-.84-.52-1.87-1.39-2.68-.32-.36.48-.02,1.63.22,2.41,1.67,5.37,8.6,13.21,15.35,17.5Z"/>
        </g>
      </g>
      <path class="cls-6" d="M90.92,194.88c-2.54-65.18,49.01-120.94,114.14-123.47,65.3-2.54,121.39,48.98,123.92,113.81,2.56,65.64-49.37,121.82-114.88,124.29-64.76,2.45-120.65-49.56-123.18-114.63ZM149.59,101.72c11.75,5.24,23.46,3.39,35.46-1.22,7.18-2.76,14.45.43,20.98,3.86,3.96,2.09,5.08,6.02,2.67,9.83-2,3.15-6.14,5.12-8.8,2-8.32-9.76-16.25-1.11-24.06.23-3.15.54-9.87,3.03-7.33,7.93,2.64,5.09,7.64,1.25,10.69-1.43,6.61-5.79,13.67-3.66,20.71-1.82,4.03,1.05,4.82,4.48,4.84,8.2.02,3.91-1.25,7.34-5.54,7.27-10.52-.17-14.91,7.77-20.92,14.2-8.43,9-12.94,24.49-30.9,19.27-3.37-.98-8.33,2.87-8.73,7.66-.38,4.59,4.4,4.68,7.4,5.86,4.02,1.58,7.81,3.1,9.65,7.49,1.65,3.94,4.73,4.08,8.61,3.44,14.63-2.42,27.45,1.94,37.78,12.26,5.03,5.02,9.48,9.69,17.22,10.05,4.59.21,9.16,4.06,8.41,8-1.45,7.63-3.02,17.91-8.34,21.57-9.96,6.85-12.02,17.55-16.71,26.38-8.11,15.26.1,25.77,17.02,24.64,25.21-1.69,46.5-12.25,64.97-29.07,2.94-2.68,6.3-6.15,4.47-9.88-7.42-15.08-2.45-32.76-11.48-47.89-4.96-8.3-9.19-9.95-17.28-7.12-3.83,1.34-7.86,3.93-12.04.87-13.25-9.71-18.01-26.83-4.54-36.71,4.14-3.04,9.75-7.98,7.03-12.59-4.71-7.96-.5-10.15,5.04-13.04,2.46-1.29,4.65-3.12,3.78-6.35-.52-1.92-1.97-3.42-4.15-3.3-2.85.15-6.69,2.42-7.44-2.26-.55-3.46,3.72-4.47,5.51-6.86,3.56-4.74,6.69-2.54,10.67.06,9.64,6.29,21.59,3.76,25.26-4.73-1.29-.83-2.13-.07-2.67.93-3.97,7.24-9.83,5.54-14.66,2.06-6.46-4.66-.19-7.63,2.58-10.73,2.67-2.98,2.24-5.02-.89-7.53-35.34-28.29-96.12-25.93-124.26-1.54ZM107.71,165.75c-4.9,1.59-4.45,6.42-4.76,10.14-2.26,27.51,2.19,53.45,18.47,76.57,13.24,18.81,30.89,31.68,52.3,39.64,2.48.92,5.37,2.71,7.67.97,3.73-2.82-.75-5.27-1.14-7.97-1.26-8.71-2.7-17.4-3.91-26.12-1.12-8.13-3.69-14.71-10.45-20.71-7.69-6.83-15.95-15.49-8.65-27.83,1.45-2.45,1.44-4.5-1.31-5.58-6.79-2.67-11.72-8.63-19.13-10.29-7.43-1.66-12.86-5.14-15.24-13.58-1.81-6.43-6.25-12.3-13.84-15.26Z"/>
    </g>
  </g>
</svg>