<?xml version="1.0" encoding="UTF-8"?>
<svg id="Capa_2" data-name="Capa 2" xmlns="http://www.w3.org/2000/svg" xmlns:xlink="http://www.w3.org/1999/xlink" viewBox="0 0 811.82 202.41">
  <defs>
    <style>
      .cls-1 {
        letter-spacing: -.09em;
      }

      .cls-2 {
        fill: url(#Degradado_sin_nombre_1413-7);
      }

      .cls-2, .cls-3, .cls-4, .cls-5, .cls-6, .cls-7, .cls-8, .cls-9, .cls-10, .cls-11 {
        stroke-width: 0px;
      }

      .cls-3 {
        fill: url(#Degradado_sin_nombre_1413);
      }

      .cls-12 {
        fill: #000;
      }

      .cls-12, .cls-13 {
        letter-spacing: -.05em;
      }

      .cls-12, .cls-14 {
        font-family: AvenirLT-Black, 'Avenir LT 65 Medium';
        font-size: 160.49px;
        font-weight: 800;
      }

      .cls-4 {
        fill: url(#Degradado_sin_nombre_1413-3);
      }

      .cls-5 {
        fill: url(#Degradado_sin_nombre_1413-5);
      }

      .cls-6 {
        fill: url(#Degradado_sin_nombre_1413-4);
      }

      .cls-7 {
        fill: url(#Degradado_sin_nombre_1413-9);
      }

      .cls-8 {
        fill: url(#Degradado_sin_nombre_1413-6);
      }

      .cls-9 {
        fill: url(#Degradado_sin_nombre_1413-2);
      }

      .cls-10 {
        fill: #fff;
      }

      .cls-11 {
        fill: url(#Degradado_sin_nombre_1413-8);
      }

      .cls-14 {
        fill: #ff9100;
      }
    </style>
    <radialGradient id="Degradado_sin_nombre_1413" data-name="Degradado sin nombre 1413" cx="227.52" cy="90.81" fx="227.52" fy="90.81" r="24.44" gradientUnits="userSpaceOnUse">
      <stop offset="0" stop-color="#fbb03b"/>
      <stop offset=".27" stop-color="#fca22d"/>
      <stop offset=".62" stop-color="#fe9621"/>
      <stop offset="1" stop-color="#ff931e"/>
    </radialGradient>
    <radialGradient id="Degradado_sin_nombre_1413-2" data-name="Degradado sin nombre 1413" cx="212.69" cy="59.84" fx="212.69" fy="59.84" r="46.3" xlink:href="#Degradado_sin_nombre_1413"/>
    <radialGradient id="Degradado_sin_nombre_1413-3" data-name="Degradado sin nombre 1413" cx="227.37" cy="69.24" fx="227.37" fy="69.24" r="30.25" xlink:href="#Degradado_sin_nombre_1413"/>
    <radialGradient id="Degradado_sin_nombre_1413-4" data-name="Degradado sin nombre 1413" cx="224.06" cy="108.61" fx="224.06" fy="108.61" r="16.79" xlink:href="#Degradado_sin_nombre_1413"/>
    <radialGradient id="Degradado_sin_nombre_1413-5" data-name="Degradado sin nombre 1413" cx="25.37" cy="90.81" fx="25.37" fy="90.81" r="24.44" xlink:href="#Degradado_sin_nombre_1413"/>
    <radialGradient id="Degradado_sin_nombre_1413-6" data-name="Degradado sin nombre 1413" cx="37.91" cy="60.45" fx="37.91" fy="60.45" r="46.07" xlink:href="#Degradado_sin_nombre_1413"/>
    <radialGradient id="Degradado_sin_nombre_1413-7" data-name="Degradado sin nombre 1413" cx="25.53" cy="69.24" fx="25.53" fy="69.24" r="30.25" xlink:href="#Degradado_sin_nombre_1413"/>
    <radialGradient id="Degradado_sin_nombre_1413-8" data-name="Degradado sin nombre 1413" cx="28.84" cy="108.61" fx="28.84" fy="108.61" r="16.79" xlink:href="#Degradado_sin_nombre_1413"/>
    <radialGradient id="Degradado_sin_nombre_1413-9" data-name="Degradado sin nombre 1413" cx="113.69" cy="53.73" fx="113.69" fy="53.73" r="71.55" gradientTransform="translate(10.43 65.05) rotate(-2.2)" xlink:href="#Degradado_sin_nombre_1413"/>
  </defs>
  <g id="Capa_1-2" data-name="Capa 1">
    <text class="cls-14" transform="translate(413 163.74)"><tspan class="cls-1" x="0" y="0">V</tspan><tspan class="cls-13" x="99.03" y="0">uelo</tspan></text>
    <text class="cls-12" transform="translate(257.7 163.89)"><tspan x="0" y="0">Al</tspan></text>
    <g>
      <circle class="cls-10" cx="126.1" cy="114.24" r="72.13"/>
      <g>
        <path class="cls-3" d="M234.12,98.2c-9.41,5.73-19.28,10.61-29.13,15.51-.72.36-1.6.88-2.32.34-.91-.69-.42-1.72-.09-2.56,1.15-2.92,3.55-4.79,5.92-6.57,5.68-4.24,11.51-8.3,17.24-12.48,9.26-6.75,17.96-14.11,24.64-23.57.44-.62.79-1.77,1.73-1.48,1.12.35.7,1.57.72,2.44.38,11.94-6.38,19.73-15.34,26.22-1.08.78-2.25,1.45-3.38,2.16Z"/>
        <g>
          <path class="cls-9" d="M236.02,13.75c4.32,7.57,4.03,18.1.96,28.88-3.64,12.78-11.19,23.32-19.25,33.55-5.54,7.03-17.81,25.32-21.33,33.73-2.88,6.88-3.98,2.31-2.01,9.77-5.53-3.22-1.86-1.96-2.52-1.54-.74.48-.57-1.16-1.18-1.51-8.17-4.72-3.66-9.69,0-19.89,3.66-10.18,9.37-19.24,15.62-27.97,6.27-8.77,11.91-17.84,14.43-28.49,2.56-10.81,2.16-21.27-4.01-30.96-1.86-2.93-4.46-5.09-7.31-7-.5-.33-1.14-.7-.83-1.45.22-.55.84-.47,1.34-.56,9.47-1.6,19.34,2.81,26.1,13.44Z"/>
          <path class="cls-4" d="M246.37,35.48c7.06,12.57,6.02,24.7-3.26,36.2-6.58,8.14-14.55,14.85-22.7,21.33-4.67,3.72-9.49,7.25-14.26,10.85-.61.46-1.15,1.55-2.04.82-.76-.63-.1-1.54.18-2.27,2.36-5.99,5.77-11.37,9.65-16.48,6.42-8.44,13.8-16.13,19.4-25.22,4.74-7.7,8.6-15.71,10.3-24.66.16-.85-.16-1.97.93-2.44.47-.21.89.28,1.79,1.88Z"/>
          <path class="cls-6" d="M235.34,109.28c-5.2,3.29-11.07,4.92-16.87,6.71-4.33,1.34-8.67,2.61-13.02,3.88-.64.19-1.47.7-1.96-.13-.43-.73.2-1.36.63-1.91,1.57-2.02,3.78-3.13,6.03-4.17,9.81-4.5,20.09-8,29.29-13.81,1.22-.77,2.41-1.58,3.64-2.34.5-.31,1.13-.84,1.61-.19.22.29.01.98-.13,1.45-1.01,3.22-5.16,7.93-9.22,10.51Z"/>
        </g>
      </g>
      <g>
        <path class="cls-5" d="M18.78,98.2c9.41,5.73,19.28,10.61,29.13,15.51.72.36,1.6.88,2.32.34.91-.69.42-1.72.09-2.56-1.15-2.92-3.55-4.79-5.92-6.57-5.68-4.24-11.51-8.3-17.24-12.48-9.26-6.75-17.96-14.11-24.64-23.57-.44-.62-.79-1.77-1.73-1.48-1.12.35-.7,1.57-.72,2.44-.38,11.94,6.38,19.73,15.34,26.22,1.08.78,2.25,1.45,3.38,2.16Z"/>
        <g>
          <path class="cls-8" d="M16.88,13.75c-4.32,7.57-4.03,18.1-.96,28.88,3.64,12.78,11.19,23.32,19.25,33.55,5.54,7.03,11.6,13.71,15.12,22.12,2.88,6.88,6.27,10.84,4.3,18.3-.15.58,10-.67,5.34,3.58-.65.59,2.39.81-1.18.67-.34-8.77,1.18-13.97,3.45-24.12-3.66-10.18-9.37-19.24-15.62-27.97-6.27-8.77-11.91-17.84-14.43-28.49-2.56-10.81-2.16-21.27,4.01-30.96,1.86-2.93,4.46-5.09,7.31-7,.5-.33,1.14-.7.83-1.45-.22-.55-.84-.47-1.34-.56-9.47-1.6-19.34,2.81-26.1,13.44Z"/>
          <path class="cls-2" d="M6.53,35.48c-7.06,12.57-6.02,24.7,3.26,36.2,6.58,8.14,14.55,14.85,22.7,21.33,4.67,3.72,9.49,7.25,14.26,10.85.61.46,1.15,1.55,2.04.82.76-.63.1-1.54-.18-2.27-2.36-5.99-5.77-11.37-9.65-16.48-6.42-8.44-13.8-16.13-19.4-25.22-4.74-7.7-8.6-15.71-10.3-24.66-.16-.85.16-1.97-.93-2.44-.47-.21-.89.28-1.79,1.88Z"/>
          <path class="cls-11" d="M17.56,109.28c5.2,3.29,11.07,4.92,16.87,6.71,4.33,1.34,8.67,2.61,13.02,3.88.64.19,1.47.7,1.96-.13.43-.73-.2-1.36-.63-1.91-1.57-2.02-3.78-3.13-6.03-4.17-9.81-4.5-20.09-8-29.29-13.81-1.22-.77-2.41-1.58-3.64-2.34-.5-.31-1.13-.84-1.61-.19-.22.29-.01.98.13,1.45,1.01,3.22,5.16,7.93,9.22,10.51Z"/>
        </g>
      </g>
      <path class="cls-7" d="M54.61,117.04c-1.52-39.15,29.44-72.64,68.55-74.16,39.22-1.52,72.91,29.42,74.42,68.35,1.54,39.42-29.65,73.16-68.99,74.65-38.89,1.47-72.46-29.77-73.98-68.84ZM89.84,61.09c7.06,3.14,14.09,2.04,21.3-.73,4.31-1.66,8.68.26,12.6,2.32,2.38,1.25,3.05,3.62,1.6,5.91-1.2,1.89-3.69,3.07-5.28,1.2-5-5.86-9.76-.66-14.45.14-1.89.32-5.93,1.82-4.4,4.76,1.59,3.05,4.59.75,6.42-.86,3.97-3.48,8.21-2.2,12.44-1.09,2.42.63,2.89,2.69,2.9,4.93.01,2.35-.75,4.41-3.33,4.37-6.32-.1-8.95,4.67-12.57,8.53-5.06,5.41-7.77,14.71-18.56,11.58-2.02-.59-5,1.73-5.24,4.6-.23,2.76,2.65,2.81,4.45,3.52,2.42.95,4.69,1.86,5.79,4.5.99,2.37,2.84,2.45,5.17,2.06,8.78-1.45,16.48,1.17,22.69,7.36,3.02,3.02,5.7,5.82,10.34,6.04,2.75.13,5.5,2.44,5.05,4.8-.87,4.58-1.81,10.76-5.01,12.95-5.98,4.12-7.22,10.54-10.04,15.85-4.87,9.17.06,15.48,10.22,14.8,15.14-1.01,27.93-7.36,39.02-17.46,1.77-1.61,3.79-3.69,2.68-5.93-4.46-9.06-1.47-19.68-6.89-28.76-2.98-4.99-5.52-5.98-10.38-4.28-2.3.8-4.72,2.36-7.23.52-7.96-5.83-10.81-16.11-2.73-22.05,2.49-1.82,5.86-4.79,4.22-7.56-2.83-4.78-.3-6.1,3.03-7.83,1.48-.77,2.79-1.87,2.27-3.81-.31-1.15-1.19-2.05-2.49-1.98-1.71.09-4.02,1.45-4.47-1.36-.33-2.08,2.23-2.69,3.31-4.12,2.14-2.85,4.02-1.52,6.41.04,5.79,3.78,12.97,2.26,15.17-2.84-.77-.5-1.28-.04-1.61.56-2.38,4.35-5.9,3.33-8.8,1.24-3.88-2.8-.11-4.59,1.55-6.45,1.6-1.79,1.34-3.02-.54-4.52-21.22-16.99-57.73-15.57-74.63-.92ZM64.69,99.55c-2.94.95-2.67,3.85-2.86,6.09-1.36,16.52,1.32,32.1,11.09,45.99,7.95,11.3,18.55,19.03,31.41,23.81,1.49.55,3.22,1.63,4.61.58,2.24-1.69-.45-3.16-.69-4.78-.76-5.23-1.62-10.45-2.35-15.69-.67-4.88-2.22-8.83-6.28-12.44-4.62-4.1-9.58-9.3-5.19-16.71.87-1.47.87-2.7-.79-3.35-4.08-1.6-7.04-5.19-11.49-6.18-4.46-.99-7.72-3.09-9.16-8.15-1.09-3.86-3.75-7.39-8.31-9.16Z"/>
    </g>
  </g>
</svg>